# AST/ASF file generated using VICON BodyLanguage
# -----------------------------------------------
:version 1.10
:name VICON
:units
  mass 1.0
  length 0.45
  angle deg
:documentation
   .ast/.asf automatically generated from VICON data using
   VICON BodyBuilder and BodyLanguage model FoxedUp or BRILLIANT.MOD
:root
   order TX TY TZ RX RY RZ
   axis XYZ
   position 0 0 0  
   orientation 0 0 0 
:bonedata
  begin
     id 1 
     name lhipjoint
     direction 0.682418 -0.694059 0.22932 
     length 2.25561 
     axis 0 0 0  XYZ
  end
  begin
     id 2 
     name lfemur
     direction 0.34202 -0.939693 0  
     length 6.96448  
     axis 0 0 20  XYZ
    dof rx ry rz
    limits (-160.0 20.0)
           (-70.0 70.0)
           (-60.0 70.0)
  end
  begin
     id 3 
     name ltibia
     direction 0.34202 -0.939693 0   
     length 6.88553   
     axis 0 0 20   XYZ
    dof rx
    limits (-10.0 170.0)
  end
  begin
     id 4 
     name lfoot
     direction 0.0723587 -0.198804 0.977364   
     length 1.88518   
     axis -90 7.62852e-016 20   XYZ
    dof rx rz
    limits (-45.0 90.0)
           (-70.0 20.0)
  end
  begin
     id 5 
     name ltoes
     direction 1.53558e-011 -4.21962e-011 1   
     length 0.952124   
     axis -90 7.62852e-016 20   XYZ
    dof rx
    limits (-90.0 20.0)
  end
  begin
     id 6 
     name rhipjoint
     direction -0.657603 -0.71533 0.236348   
     length 2.18854  
     axis 0 0 0  XYZ 
  end
  begin
     id 7 
     name rfemur
     direction -0.34202 -0.939693 0   
     length 6.86686   
     axis 0 0 -20   XYZ
    dof rx ry rz
    limits (-160.0 20.0)
           (-70.0 70.0)
           (-70.0 60.0)
  end
  begin
     id 8 
     name rtibia
     direction -0.34202 -0.939693 0   
     length 6.59503   
     axis 0 0 -20   XYZ
    dof rx
    limits (-10.0 170.0)
 end
 begin
     id 9 
     name rfoot
     direction -0.101977 -0.280179 0.954516   
     length 1.93723  
     axis -90 -7.62852e-016 -20   XYZ
    dof rx rz
    limits (-45.0 90.0)
           (-20.0 70.0)
  end
  begin
     id 10 
     name rtoes
     direction -1.53564e-011 -4.21897e-011 1   
     length 0.970315   
     axis -90 -7.62852e-016 -20   XYZ
    dof rx
    limits (-90.0 20.0)
  end
  begin
     id 11 
     name lowerback
     direction -0.0339559 0.999421 -0.00235966   
     length 1.88543   
     axis 0 0 0   XYZ
    dof rx ry rz
    limits (-20.0 45.0)
           (-30.0 30.0)
           (-30.0 30.0)
  end
  begin
     id 12 
     name upperback
     direction 0.00401003 0.999739 0.0224689   
     length 1.8856   
     axis 0 0 0   XYZ
    dof rx ry rz
    limits (-20.0 45.0)
           (-30.0 30.0)
           (-30.0 30.0)
  end
  begin
     id 13 
     name thorax
     direction 0.0198619 0.999546 0.0226536   
     length 1.88352   
     axis 0 0 0   XYZ
    dof rx ry rz
    limits (-20.0 45.0)
           (-30.0 30.0)
           (-30.0 30.0)
  end
  begin
     id 14 
     name lowerneck
     direction -0.0461848 0.998632 0.0245198   
     length 1.34895   
     axis 0 0 0   XYZ
    dof rx ry rz
    limits (-20.0 45.0)
           (-30.0 30.0)
           (-30.0 30.0)
  end
  begin
     id 15 
     name upperneck
     direction -0.0180627 0.994724 -0.100984   
     length 1.35214   
     axis 0 0 0   XYZ
    dof rx ry rz
    limits (-20.0 45.0)
           (-30.0 30.0)
           (-30.0 30.0)
  end
  begin
     id 16
     name head
     direction -0.00374772 0.999293 -0.037403  
     length 1.3568  
     axis 0 0 0   XYZ
    dof rx ry rz
    limits (-20.0 45.0)
           (-30.0 30.0)
           (-30.0 30.0)
  end
  begin
     id 17 
     name lclavicle
     direction 0.971773 0.191119 0.138311  
     length 2.84954  
     axis 0 0 0   XYZ
    dof ry rz
    limits (-20.0 10.0)
           (0.0 20.0)
  end
  begin
     id 18 
     name lhumerus
     direction 1 -4.4897e-011 -2.43761e-027   
     length 4.40919   
     axis 180 -30 -90   XYZ
    dof rx ry rz
    limits (-60.0 90.0)
           (-90.0 90.0)
           (-90.0 90.0)
  end
  begin
     id 19
     name lradius
     direction 1 -4.4896e-011 -9.1621e-027   
     length 3.03857   
     axis 180 -30 -90   XYZ
    dof rx
    limits (-10.0 170.0)
  end
  begin
     id 20
     name lwrist
     direction 1 -4.4896e-011 -1.41363e-026   
     length 1.51928   
     axis 1.07133e-014 90 90   XYZ
    dof ry
    limits (-180.0 0.0)
 end
  begin
     id 21 
     name lhand
     direction 1 -4.48978e-011 -2.82725e-026   
     length 0.523208   
     axis 1.80403e-014 90 90   XYZ
    dof rx rz
    limits (-90.0 90.0)
           (-45.0 45.0)
  end
  begin
     id 22 
     name lfingers
     direction 1 -4.48977e-011 -5.6545e-026   
     length 0.421824   
     axis 3.60806e-014 90 90   XYZ
    dof rx
    limits (0.0 90.0)
  end
  begin
     id 23
     name lthumb
     direction 0.707107 -6.34962e-011 0.707107   
     length 0.605657   
     axis -90 45 2.85299e-015   XYZ
    dof rx rz
    limits (-45.0 45.0)
           (-45.0 45.0)
  end
  begin
     id 24 
     name rclavicle
     direction -0.957247 0.24311 0.156766   
     length 3.12406  
     axis 0 0 0   XYZ 
    dof ry rz
    limits (-10.0 20.0)
           (-20.0 0.0)
  end
  begin
     id 25 
     name rhumerus
     direction -1 -4.48964e-011 -1.70632e-027  
     length 4.61969   
     axis 180 30 90   XYZ
    dof rx ry rz
    limits (-90.0 60.0)
           (-90.0 90.0)
           (-90.0 90.0)
  end
  begin
     id 26 
     name rradius
     direction -1 -4.48966e-011 -6.60395e-027   
     length 3.09382   
     axis 180 30 90   XYZ
    dof rx
    limits (-10.0 170.0)
  end
  begin
     id 27 
     name rwrist
     direction -1 -4.48963e-011 -1.41363e-026   
     length 1.54691   
     axis 1.07133e-014 -90 -90   XYZ
    dof ry
    limits (-180.0 0.0)
  end
  begin
     id 28
     name rhand
     direction -1 -4.49013e-011 -2.82725e-026   
     length 0.500896   
     axis 1.80403e-014 -90 -90   XYZ
    dof rx rz
    limits (-90.0 90.0)
           (-45.0 45.0)
  end
  begin
     id 29
     name rfingers
     direction -1 -4.48902e-011 -5.6545e-026   
     length 0.403835   
     axis 3.60806e-014 -90 -90   XYZ
    dof rx
    limits (0.0 90.0)
  end
  begin
     id 30
     name rthumb
     direction -0.707107 -6.34953e-011 0.707107   
     length 0.579829   
     axis -90 -45 -2.85299e-015   XYZ
    dof rx rz
    limits (-45.0 45.0)
           (-45.0 45.0)
  end
:hierarchy
  begin
    root lhipjoint rhipjoint lowerback
    lhipjoint lfemur
    lfemur ltibia
    ltibia lfoot
    lfoot ltoes
    rhipjoint rfemur
    rfemur rtibia
    rtibia rfoot
    rfoot rtoes
    lowerback upperback
    upperback thorax
    thorax lowerneck lclavicle rclavicle
    lowerneck upperneck
    upperneck head
    lclavicle lhumerus
    lhumerus lradius
    lradius lwrist
    lwrist lhand lthumb
    lhand lfingers
    rclavicle rhumerus
    rhumerus rradius
    rradius rwrist
    rwrist rhand rthumb
    rhand rfingers
  end

#!OML:ASF E:\madness\Project 1\Capture day 1\Session 1\Female1.ASF
:FULLY-SPECIFIED
:DEGREES
256
root 7.28464 16.5153 1.90301 9.33733 -39.585 0.59707
lowerback -9.78401 2.39668 -2.59195
upperback -5.94492 3.29681 0.054823
thorax -0.851781 1.68435 1.79562
lowerneck -1.53848 2.6689 -0.555478
upperneck 15.6583 3.31895 1.78809
head 4.90851 1.66366 0.795858
rclavicle 4.45338e-014 1.0781e-014
rhumerus -55.3658 -2.28538 -82.6843
rradius 59.5798
rwrist 2.46159
rhand -10.9767 -47.4125
rfingers 7.12502
rthumb 15.043 -76.846
lclavicle 4.45338e-014 1.0781e-014
lhumerus -59.0347 8.50223 76.0489
lradius 61.5168
lwrist -6.14828
lhand -20.9489 -14.2817
lfingers 7.12502
lthumb 5.42371 15.6289
rfemur 8.88627 4.70657 19.0718
rtibia 5.86163
rfoot -25.2617 -44.1221
rtoes 35.2653
lfemur -10.6293 -14.7157 -22.6519
ltibia 13.4316
lfoot -8.21164 9.97831
ltoes 14.0247
257
root 7.2865 16.5165 1.90359 9.30263 -39.6401 0.682917
lowerback -9.8056 2.34793 -2.74501
upperback -5.9202 3.24539 0.0684138
thorax -0.821876 1.66221 1.89253
lowerneck -1.57383 2.28751 -0.625144
upperneck 15.644 2.81543 1.70465
head 4.91616 1.40714 0.758924
rclavicle -4.08218e-014 -6.10331e-015
rhumerus -55.589 -2.48171 -82.5671
rradius 59.7777
rwrist 2.52224
rhand -11.317 -47.082
rfingers 7.12502
rthumb 14.7151 -76.5398
lclavicle -4.08218e-014 -6.10331e-015
lhumerus -59.0247 8.51264 76.193
lradius 61.8299
lwrist -6.18095
lhand -20.8179 -14.3018
lfingers 7.12502
lthumb 5.55016 15.6056
rfemur 8.77916 4.79875 18.9908
rtibia 6.0216
rfoot -25.2322 -44.164
rtoes 34.9457
lfemur -10.5895 -14.6924 -22.725
ltibia 13.3336
lfoot -8.19801 9.95298
ltoes 15.2137
258
root 7.28865 16.517 1.90392 9.29879 -39.6741 0.711374
lowerback -9.8187 2.24231 -2.81665
upperback -5.89353 3.11186 0.0928816
thorax -0.785459 1.59679 1.94812
lowerneck -0.370472 1.93345 1.10179
upperneck 14.0563 2.52023 -0.372236
head 4.74437 1.2425 -0.217732
rclavicle 2.75193e-015 1.15668e-014
rhumerus -55.7439 -2.44424 -82.5954
rradius 59.8831
rwrist 2.65156
rhand -11.4051 -46.3183
rfingers 7.12502
rthumb 14.6302 -75.7822
lclavicle 2.75193e-015 1.15668e-014
lhumerus -59.0408 8.56219 76.2927
lradius 62.1743
lwrist -5.98951
lhand -20.8954 -14.1866
lfingers 7.12502
lthumb 5.47537 15.7227
rfemur 8.5995 4.86974 18.9586
rtibia 6.32842
rfoot -25.402 -44.0891
rtoes 35.0899
lfemur -10.5489 -14.5707 -22.765
ltibia 13.2269
lfoot -8.22699 9.86991
ltoes 15.7588
259
root 7.29644 16.5156 1.90299 9.32009 -39.7289 0.678174
lowerback -9.7461 2.17223 -2.77199
upperback -5.89147 3.0134 0.106913
thorax -0.815679 1.54701 1.92632
lowerneck -0.724885 1.67177 0.227106
upperneck 14.4022 2.11531 0.343863
head 4.91813 1.03033 0.168118
rclavicle 1.12574e-013 2.58358e-014
rhumerus -55.9121 -2.37061 -82.6405
rradius 60.029
rwrist 2.60694
rhand -11.347 -46.3875
rfingers 7.12502
rthumb 14.6862 -75.8473
lclavicle 1.12574e-013 2.58358e-014
lhumerus -59.021 8.64709 76.3202
lradius 62.4486
lwrist -5.93321
lhand -20.9471 -13.7809
lfingers 7.12502
lthumb 5.4254 16.1296
rfemur 8.45656 4.97177 18.9549
rtibia 6.53915
rfoot -25.4619 -44.066
rtoes 34.8757
lfemur -10.5654 -14.4319 -22.7726
ltibia 13.2016
lfoot -8.23883 9.8833
ltoes 15.3216
260
root 7.30803 16.5167 1.90402 9.38955 -39.8043 0.686516
lowerback -9.64831 2.2154 -2.64212
upperback -5.97066 3.05571 0.00583162
thorax -0.940505 1.56513 1.74639
lowerneck -0.812341 1.28135 -0.0664541
upperneck 14.5936 1.5717 0.550362
head 5.00312 0.756006 0.268234
rclavicle 3.90022e-014 2.55687e-014
rhumerus -56.236 -2.61738 -82.6108
rradius 60.2952
rwrist 2.394
rhand -11.3099 -47.7026
rfingers 7.12502
rthumb 14.7219 -77.1598
lclavicle 3.90022e-014 2.55687e-014
lhumerus -58.9858 8.55252 76.2851
lradius 62.6537
lwrist -6.04558
lhand -20.5577 -14.1237
lfingers 7.12502
lthumb 5.80139 15.7768
rfemur 8.24885 5.08912 18.8812
rtibia 6.67864
rfoot -25.1565 -44.1776
rtoes 34.2281
lfemur -10.6876 -14.5687 -22.7752
ltibia 13.2166
lfoot -8.2586 10.0113
ltoes 16.1912
261
root 7.31545 16.5199 1.90662 9.4438 -39.9083 0.713466
lowerback -9.62615 2.23986 -2.57936
upperback -6.0159 3.08116 -0.0636596
thorax -0.993375 1.57568 1.63949
lowerneck -0.580775 0.96481 0.0494184
upperneck 14.2958 1.17021 0.295272
head 4.8485 0.552294 0.139343
rclavicle -3.65267e-014 -6.41081e-015
rhumerus -56.5303 -2.78801 -82.6069
rradius 60.5103
rwrist 2.0436
rhand -11.8197 -48.4077
rfingers 7.12502
rthumb 14.2308 -77.9002
lclavicle -3.65267e-014 -6.41081e-015
lhumerus -58.9401 8.56239 76.2494
lradius 62.788
lwrist -6.15266
lhand -20.3616 -14.9757
lfingers 7.12502
lthumb 5.9907 14.9196
rfemur 8.04769 5.23232 18.7997
rtibia 6.84933
rfoot -24.7686 -44.3205
rtoes 33.622
lfemur -10.7452 -14.7258 -22.7887
ltibia 13.2021
lfoot -8.24394 10.1058
ltoes 17.1436
262
root 7.31893 16.5211 1.90761 9.489 -40.0409 0.648803
lowerback -9.6351 2.2 -2.56463
upperback -5.98528 3.02796 -0.0189773
thorax -0.955679 1.54869 1.67436
lowerneck -0.340713 0.647084 -0.141201
upperneck 13.9532 0.753081 0.272608
head 4.67252 0.33632 0.145071
rclavicle -3.51849e-014 -1.38404e-014
rhumerus -56.671 -2.78005 -82.5826
rradius 60.6219
rwrist 1.90703
rhand -11.9779 -48.2896
rfingers 7.12502
rthumb 14.0783 -77.7927
lclavicle -3.51849e-014 -1.38404e-014
lhumerus -58.929 8.70038 76.344
lradius 62.9693
lwrist -6.24315
lhand -20.8699 -14.7091
lfingers 7.12502
lthumb 5.49992 15.1995
rfemur 7.94151 5.41879 18.818
rtibia 7.01204
rfoot -24.6831 -44.3506
rtoes 33.4855
lfemur -10.7057 -14.6056 -22.7691
ltibia 13.1715
lfoot -8.21773 10.097
ltoes 16.6053
263
root 7.32178 16.5188 1.90645 9.52048 -40.1822 0.571526
lowerback -9.60519 2.18831 -2.56582
upperback -5.97466 3.01185 0.0262772
thorax -0.962773 1.54147 1.71936
lowerneck -0.0770845 0.310633 -0.47019
upperneck 13.6938 0.285203 0.494009
head 4.52474 0.0992629 0.257351
rclavicle 4.59457e-014 1.46355e-014
rhumerus -56.7664 -2.81953 -82.4387
rradius 60.6749
rwrist 1.86316
rhand -11.4344 -48.0926
rfingers 7.12502
rthumb 14.602 -77.5586
lclavicle 4.59457e-014 1.46355e-014
lhumerus -58.9289 8.71551 76.5292
lradius 63.1934
lwrist -6.22606
lhand -21.3521 -13.8139
lfingers 7.12502
lthumb 5.0344 16.1063
rfemur 7.90217 5.62017 18.8492
rtibia 7.0714
rfoot -24.6126 -44.3659
rtoes 33.6446
lfemur -10.7206 -14.4064 -22.757
ltibia 13.1794
lfoot -8.09845 10.1671
ltoes 15.2621
264
root 7.32587 16.516 1.90483 9.51241 -40.3427 0.516241
lowerback -9.53583 2.17944 -2.583
upperback -5.97121 2.99959 0.0678847
thorax -0.999753 1.53703 1.76789
lowerneck 0.124731 -0.0167241 -0.659132
upperneck 13.5707 -0.152414 0.49769
head 4.44258 -0.126706 0.274305
rclavicle -6.95016e-014 -4.19933e-015
rhumerus -56.8749 -2.81281 -82.32
rradius 60.6854
rwrist 1.71069
rhand -11.5228 -47.7389
rfingers 7.12502
rthumb 14.5168 -77.211
lclavicle -6.95016e-014 -4.19933e-015
lhumerus -58.9752 8.67187 76.6897
lradius 63.4484
lwrist -6.00528
lhand -21.2515 -13.6885
lfingers 7.12502
lthumb 5.13154 16.2294
rfemur 7.90089 5.8395 18.8602
rtibia 7.08706
rfoot -24.4277 -44.4725
rtoes 33.5264
lfemur -10.7118 -14.4146 -22.7496
ltibia 13.1995
lfoot -7.9767 10.4142
ltoes 15.0204
265
root 7.3313 16.5156 1.90486 9.51658 -40.5454 0.448692
lowerback -9.43441 2.10168 -2.55063
upperback -5.98589 2.89061 0.0880128
thorax -1.06427 1.48269 1.75725
lowerneck -0.119066 -0.255368 -0.621481
upperneck 13.888 -0.456447 0.294381
head 4.60902 -0.286244 0.187318
rclavicle 1.1368e-014 7.90169e-015
rhumerus -57.0239 -2.70942 -82.4346
rradius 60.7177
rwrist 1.73691
rhand -11.9037 -47.4234
rfingers 7.12502
rthumb 14.1498 -76.9216
lclavicle 1.1368e-014 7.90169e-015
lhumerus -59.1554 8.66839 76.6593
lradius 63.778
lwrist -5.77487
lhand -21.1091 -13.641
lfingers 7.12502
lthumb 5.26901 16.2735
rfemur 7.84128 6.09694 18.8575
rtibia 7.18121
rfoot -24.3054 -44.5728
rtoes 33.2558
lfemur -10.6011 -14.5319 -22.7172
ltibia 13.173
lfoot -8.1673 10.6525
ltoes 16.8602
266
root 7.3352 16.5164 1.90542 9.51448 -40.7251 0.393524
lowerback -9.34472 1.98574 -2.55262
upperback -5.9978 2.73387 0.121591
thorax -1.11971 1.40542 1.77689
lowerneck -0.630449 -0.433364 -0.900539
upperneck 14.3974 -0.708154 0.464895
head 4.90536 -0.4189 0.28307
rclavicle -9.90973e-015 -1.51076e-014
rhumerus -57.2208 -2.60138 -82.5663
rradius 60.8579
rwrist 1.957
rhand -11.7242 -47.3806
rfingers 7.12502
rthumb 14.3227 -76.8666
lclavicle -9.90973e-015 -1.51076e-014
lhumerus -59.299 8.77024 76.5234
lradius 64.0569
lwrist -5.81118
lhand -21.001 -13.8767
lfingers 7.12502
lthumb 5.37339 16.0351
rfemur 7.78379 6.33051 18.846
rtibia 7.28094
rfoot -24.1664 -44.6673
rtoes 32.7727
lfemur -10.4971 -14.5919 -22.6974
ltibia 13.1574
lfoot -8.43447 10.8246
ltoes 18.2422
267
root 7.33973 16.5162 1.90514 9.54511 -40.7786 0.351496
lowerback -9.32911 1.84951 -2.59965
upperback -5.9911 2.55594 0.199847
thorax -1.1185 1.31876 1.86987
lowerneck -0.515495 -0.694568 -0.889991
upperneck 14.2968 -1.04966 0.341681
head 4.84641 -0.593262 0.224484
rclavicle -4.22918e-014 -4.61864e-015
rhumerus -57.3497 -2.46436 -82.5889
rradius 60.9638
rwrist 2.13308
rhand -11.5071 -47.4981
rfingers 7.12502
rthumb 14.5319 -76.9691
lclavicle -4.22918e-014 -4.61864e-015
lhumerus -59.3137 8.95874 76.5218
lradius 64.2167
lwrist -5.81156
lhand -21.0102 -14.4252
lfingers 7.12502
lthumb 5.36451 15.4869
rfemur 7.7261 6.44068 18.8592
rtibia 7.34342
rfoot -24.0569 -44.7304
rtoes 32.3349
lfemur -10.5667 -14.4948 -22.6967
ltibia 13.1736
lfoot -8.33676 10.8953
ltoes 17.2615
268
root 7.34481 16.5171 1.90445 9.66389 -40.8469 0.26979
lowerback -9.37194 1.7723 -2.60614
upperback -6.00118 2.4541 0.280506
thorax -1.10443 1.26896 1.95034
lowerneck -0.494324 -0.994589 -1.57291
upperneck 14.2802 -1.48791 0.847739
head 4.85322 -0.820923 0.498968
rclavicle -2.56324e-014 3.57812e-015
rhumerus -57.4189 -2.41597 -82.5057
rradius 60.9405
rwrist 2.24188
rhand -11.5248 -47.3885
rfingers 7.12502
rthumb 14.5149 -76.8608
lclavicle -2.56324e-014 3.57812e-015
lhumerus -59.3169 9.06204 76.709
lradius 64.3437
lwrist -5.58444
lhand -21.525 -13.908
lfingers 7.12502
lthumb 4.86747 16.016
rfemur 7.57286 6.56574 18.903
rtibia 7.45347
rfoot -23.8893 -44.7629
rtoes 32.3686
lfemur -10.6885 -14.2642 -22.6566
ltibia 13.1393
lfoot -8.17162 10.837
ltoes 16.2232
269
root 7.34944 16.5191 1.90403 9.71242 -41.0033 0.212853
lowerback -9.3491 1.78629 -2.59423
upperback -6.00877 2.47073 0.303589
thorax -1.12624 1.27762 1.96778
lowerneck -0.420855 -1.346 -1.99188
upperneck 14.1793 -1.96969 1.04732
head 4.81803 -1.07061 0.620759
rclavicle 2.95832e-014 5.72748e-015
rhumerus -57.566 -2.591 -82.3595
rradius 60.9568
rwrist 2.3134
rhand -11.8535 -47.1412
rfingers 7.12502
rthumb 14.1982 -76.6359
lclavicle 2.95832e-014 5.72748e-015
lhumerus -59.3442 8.91927 76.9317
lradius 64.5865
lwrist -5.3824
lhand -21.7557 -13.1666
lfingers 7.12502
lthumb 4.64463 16.7625
rfemur 7.44557 6.77326 18.9071
rtibia 7.60573
rfoot -23.6523 -44.8447
rtoes 32.3467
lfemur -10.6502 -14.2156 -22.6328
ltibia 13.0579
lfoot -8.17939 10.9038
ltoes 16.5475
